<svg t="1734109302148" class="icon" viewBox="0 0 1024 1024" version="1.1" xmlns="http://www.w3.org/2000/svg" p-id="1860" width="200" height="200"><path d="M295.84 952a7.984 7.984 0 0 1-7.952-7.312L257.28 588.736l-101.392 43.456A111.856 111.856 0 0 0 88 735.12V944a8 8 0 0 1-16 0V735.12a127.904 127.904 0 0 1 77.584-117.664l111.568-47.808a8.08 8.08 0 0 1 7.264 0.496 7.936 7.936 0 0 1 3.856 6.176l31.568 366.992a8 8 0 0 1-7.28 8.656l-0.72 0.032zM440.144 952l-0.704-0.032a8 8 0 0 1-7.28-8.656l31.584-366.992a8.016 8.016 0 0 1 11.12-6.672l111.568 47.808a127.904 127.904 0 0 1 77.584 117.664V808H816a8 8 0 0 1 8 8v128a8 8 0 0 1-8 8H608a88.112 88.112 0 0 1-88-88v-48a8 8 0 0 1 16 0v48c0 39.696 32.304 72 72 72h200v-112H656a8 8 0 0 1-8-8v-80.88a111.888 111.888 0 0 0-67.888-102.944l-101.392-43.456-30.624 355.952a8 8 0 0 1-7.952 7.328zM951.024 936H848a8 8 0 0 1 0-16h103.024a32.16 32.16 0 0 0 30.768-23.2l17.888-62.592a7.92 7.92 0 0 0-1.312-7.008 7.904 7.904 0 0 0-6.384-3.184H848a8 8 0 0 1 0-16h143.984c7.616 0 14.592 3.488 19.168 9.552s6 13.728 3.904 21.056l-17.888 62.592a48.192 48.192 0 0 1-46.144 34.784z" fill="#263238" p-id="1861"></path><path d="M967.936 752H774.096c-31.184 0-50.384-34.096-34.192-60.752L839.024 528h64l99.104 163.248C1018.32 717.904 999.12 752 967.936 752z" fill="#4DB6AC" p-id="1862"></path><path d="M967.936 760H774.096a47.408 47.408 0 0 1-41.824-24.448 47.424 47.424 0 0 1 0.8-48.448l99.104-163.248a8.016 8.016 0 0 1 6.848-3.84h64c2.8 0 5.392 1.456 6.848 3.84l99.104 163.248c9.104 15.024 9.424 33.136 0.8 48.448a47.456 47.456 0 0 1-41.84 24.448z m-124.416-224l-96.768 159.408a31.6 31.6 0 0 0-0.544 32.304 31.632 31.632 0 0 0 27.888 16.304h193.84c11.712 0 22.144-6.096 27.888-16.304a31.648 31.648 0 0 0-0.544-32.304L898.512 536H843.52z" fill="#263238" p-id="1863"></path><path d="M903.008 536h-64a8 8 0 0 1-8-8v-32a8 8 0 0 1 8-8h64a8 8 0 0 1 8 8v32a8 8 0 0 1-8 8z m-56-16h48v-16h-48v16zM883.008 688h-36a8 8 0 0 1 0-16h36c6.608 0 12-5.392 12-12s-5.392-12-12-12h-24c-15.44 0-28-12.56-28-28s12.576-28 28-28h36a8 8 0 0 1 0 16h-36c-6.608 0-12 5.392-12 12s5.392 12 12 12h24c15.44 0 28 12.56 28 28S898.448 688 883.008 688z" fill="#263238" p-id="1864"></path><path d="M871.008 600a8 8 0 0 1-8-8v-16a8 8 0 0 1 16 0v16a8 8 0 0 1-8 8zM871.008 712a8 8 0 0 1-8-8v-16a8 8 0 0 1 16 0v16a8 8 0 0 1-8 8z" fill="#263238" p-id="1865"></path><path d="M903.024 496h-64l-32-96h128z" fill="#4DB6AC" p-id="1866"></path><path d="M903.008 504h-64a8.032 8.032 0 0 1-7.6-5.472l-32-96a7.984 7.984 0 0 1 7.584-10.528h128c2.576 0 4.992 1.232 6.48 3.328 1.52 2.08 1.92 4.768 1.104 7.2l-32 96a7.952 7.952 0 0 1-7.568 5.472z m-58.224-16h52.464l26.672-80h-105.808l26.672 80z" fill="#263238" p-id="1867"></path><path d="M871.008 456a8 8 0 0 1-8-8v-48a8 8 0 0 1 16 0v48a8 8 0 0 1-8 8zM368 552a182.944 182.944 0 0 1-177.52-136.032C164.72 415.168 144 393.952 144 368s20.72-47.168 46.48-47.968C212.064 239.6 284.096 184 368 184s155.936 55.6 177.52 136.032C571.28 320.832 592 342.048 592 368s-20.72 47.168-46.48 47.968A182.944 182.944 0 0 1 368 552z m-172.416-152.336c3.824 0 8 2.4 8.848 6.064C222.048 482.432 289.312 536 368 536s145.952-53.568 163.584-130.272a7.824 7.824 0 0 1 8.768-6.144c2.064 0.288 2.848 0.416 3.648 0.416 17.648 0 32-14.352 32-32s-14.352-32-32-32c-0.736 0-1.456 0.128-2.16 0.224-4.048 0.544-9.328-1.904-10.272-5.952C513.952 253.568 446.688 200 368 200s-145.952 53.568-163.584 130.272a8.08 8.08 0 0 1-8.688 6.16C193.472 336.128 192.752 336 192 336c-17.648 0-32 14.352-32 32s14.352 32 32 32c0.816 0 1.616-0.144 2.384-0.256a9.856 9.856 0 0 1 1.2-0.08z" fill="#263238" p-id="1868"></path><path d="M208 352h-8v-104h48v64A40 40 0 0 1 208 352z" fill="#FFD740" p-id="1869"></path><path d="M208 360h-8a8 8 0 0 1-8-8v-104a8 8 0 0 1 8-8h48a8 8 0 0 1 8 8v64c0 26.464-21.536 48-48 48z m0-16h0.16H208z m0-88v88c17.648 0 32-14.352 32-32V256h-32z" fill="#263238" p-id="1870"></path><path d="M488 247.2v64.8A40 40 0 0 0 528 352h8v-126.96a79.504 79.504 0 0 1-48 22.16z" fill="#FFD740" p-id="1871"></path><path d="M536 360H528c-26.464 0-48-21.536-48-48v-64.8c0-4.112 3.104-7.552 7.2-7.952a72.048 72.048 0 0 0 43.184-19.904 7.984 7.984 0 1 1 13.616 5.696V352a8 8 0 0 1-8 8zM496 254.144V312c0 17.648 14.352 32 32 32v-102.416a89.12 89.12 0 0 1-32 12.56zM368 455.968a87.76 87.76 0 0 1-62.224-25.728 8 8 0 0 1 11.312-11.312 72.08 72.08 0 0 0 101.808 0 8 8 0 0 1 11.312 11.312A87.696 87.696 0 0 1 368 455.968z" fill="#263238" p-id="1872"></path><path d="M480 248H200A120 120 0 0 1 320 128h83.28c34.736 0 69.04-7.536 100.576-22.096L560 80v88a80 80 0 0 1-80 80z" fill="#FFD740" p-id="1873"></path><path d="M480 256H200a8 8 0 0 1-8-8c0-70.576 57.424-128 128-128h83.28a233.44 233.44 0 0 0 97.216-21.36l56.144-25.904A8 8 0 0 1 568 80v88c0 48.512-39.488 88-88 88z m-271.712-16H480c39.696 0 72-32.304 72-72V92.496l-44.784 20.672A249.424 249.424 0 0 1 403.28 136H320c-59.056 0-107.6 45.968-111.712 104z" fill="#263238" p-id="1874"></path><path d="M408 897.008L368 944l-40-46.992L352 656h32z" fill="#40C4FF" p-id="1875"></path><path d="M368 952a8 8 0 0 1-6.096-2.816l-40-47.008a7.968 7.968 0 0 1-1.856-5.984l24-240.992A7.968 7.968 0 0 1 352 648h32c4.112 0 7.552 3.104 7.952 7.2l24 240.992a7.952 7.952 0 0 1-1.856 5.984l-40 47.008A8 8 0 0 1 368 952z m-31.696-57.6L368 931.664l31.696-37.248-22.96-230.4h-17.504L336.304 894.4zM208 952a8 8 0 0 1-8-8V784a8 8 0 0 1 16 0v160a8 8 0 0 1-8 8zM528 952a8 8 0 0 1-8-8V784a8 8 0 0 1 16 0v160a8 8 0 0 1-8 8zM270.96 664a7.952 7.952 0 0 1-7.968-7.328l-6.656-78.992a8 8 0 0 1 4.816-8.032l39.696-17.008a8.016 8.016 0 0 1 9.808 2.928l32 48a8 8 0 0 1-1.904 10.88l-65.04 48a8.08 8.08 0 0 1-4.752 1.552z m1.792-81.904l4.976 58.976 47.392-34.976-24.08-36.128-28.288 12.128zM464.912 664a7.952 7.952 0 0 1-4.752-1.568l-64.912-48a8 8 0 0 1-1.904-10.88l32-48c2.144-3.2 6.24-4.416 9.808-2.928l39.696 17.008a8.032 8.032 0 0 1 4.816 8.048l-6.8 78.992a8 8 0 0 1-7.952 7.328z m-54.032-57.904l47.28 34.976 5.072-58.976-28.272-12.128-24.08 36.128z" fill="#263238" p-id="1876"></path><path d="M384 664h-32c-13.232 0-24-10.768-24-24v-16c0-13.232 10.768-24 24-24h32c13.232 0 24 10.768 24 24v16c0 13.232-10.768 24-24 24z m-32-48c-4.4 0-8 3.6-8 8v16c0 4.4 3.6 8 8 8h32c4.4 0 8-3.6 8-8v-16c0-4.4-3.6-8-8-8h-32z" fill="#263238" p-id="1877"></path><path d="M339.904 621.856l-0.432-0.016a8.032 8.032 0 0 1-6.224-3.552l-35.904-53.856A7.936 7.936 0 0 1 296 560v-28.176a8 8 0 0 1 10.928-7.456 166.88 166.88 0 0 0 122.16 0 8.016 8.016 0 0 1 10.928 7.456V560a7.936 7.936 0 0 1-1.344 4.432l-35.904 53.856a7.984 7.984 0 0 1-6.224 3.552 7.376 7.376 0 0 1-6.576-2.864A8 8 0 0 0 384 616h-32a7.872 7.872 0 0 0-5.968 3.008 8 8 0 0 1-6.128 2.848zM312 557.584l29.856 44.784c3.152-1.536 6.608-2.368 10.144-2.368h32c3.536 0 7.008 0.832 10.144 2.352l29.856-44.784v-14.4a182.896 182.896 0 0 1-112 0v14.416z" fill="#263238" p-id="1878"></path><path d="M184 544H64a8 8 0 0 1 0-16h120a8 8 0 0 1 0 16z" fill="#263238" p-id="1879"></path><path d="M32 544H16a8 8 0 0 1 0-16h16a8 8 0 0 1 0 16z" fill="#263238" p-id="1880"></path><path d="M840 296h-64a8 8 0 0 1 0-16h64a8 8 0 0 1 0 16z" fill="#263238" p-id="1881"></path><path d="M808 328a8 8 0 0 1-8-8v-64a8 8 0 0 1 16 0v64a8 8 0 0 1-8 8z" fill="#263238" p-id="1882"></path><path d="M744 376h-64a8 8 0 0 1 0-16h64a8 8 0 0 1 0 16z" fill="#263238" p-id="1883"></path><path d="M712 408a8 8 0 0 1-8-8v-64a8 8 0 0 1 16 0v64a8 8 0 0 1-8 8z" fill="#263238" p-id="1884"></path></svg>