<svg t="1734109416541" class="icon" viewBox="0 0 1024 1024" version="1.1" xmlns="http://www.w3.org/2000/svg" p-id="5791" width="200" height="200"><path d="M383.976001 640.023999m-383.976001 0a383.976001 383.976001 0 1 0 767.952003 0 383.976001 383.976001 0 1 0-767.952003 0Z" fill="#EACA44" p-id="5792"></path><path d="M991.938004 896.008h-240.624961a450.531842 450.531842 0 0 1-137.463409 127.992H991.938004a31.998 31.998 0 0 0 31.998-31.998v-63.996a31.998 31.998 0 0 0-31.998-31.998zM991.938004 736.017999h-170.549341a444.00425 444.00425 0 0 1-49.852884 127.992H991.938004a31.998 31.998 0 0 0 31.998-31.998v-63.996a31.998 31.998 0 0 0-31.998-31.998zM991.938004 576.027998h-165.077683c3.007812 20.95869 5.087682 42.205362 5.087682 63.996001s-2.07987 43.03731-5.087682 63.996H991.938004a31.998 31.998 0 0 0 31.998-31.998v-63.996001a31.998 31.998 0 0 0-31.998-31.998zM991.938004 416.037998h-220.402225a444.932192 444.932192 0 0 1 49.852884 127.992H991.938004a31.998 31.998 0 0 0 31.998-31.998v-63.996a31.998 31.998 0 0 0-31.998-31.998zM991.938004 256.047997H613.881632a450.531842 450.531842 0 0 1 137.463409 127.992001H991.938004a31.998 31.998 0 0 0 31.998-31.998001v-63.996a31.998 31.998 0 0 0-31.998-31.998zM991.938004 96.057996H223.986001a31.998 31.998 0 0 0-31.998 31.998001v63.996c0 16.414974 12.47922 29.374164 28.382226 31.262046A445.380164 445.380164 0 0 1 383.976001 192.051997c58.55634 0 114.328854 11.551278 165.621649 31.998H991.938004a31.998 31.998 0 0 0 31.998-31.998v-63.996a31.998 31.998 0 0 0-31.998-31.998001z" fill="#EACA44" p-id="5793"></path><path d="M383.976001 256.015999c-212.050747 0-383.976001 171.925255-383.976001 383.976001s171.925255 383.976001 383.976001 383.976002 383.976001-171.925255 383.976002-383.976002-171.925255-383.976001-383.976002-383.976001z m0 703.956003c-176.692957 0-319.980001-143.287045-319.980001-319.980002s143.287045-319.980001 319.980001-319.980001 319.980001 143.287045 319.980002 319.980001-143.287045 319.980001-319.980002 319.980002z" fill="" p-id="5794"></path><path d="M831.948003 895.976001h63.996v127.992001h-63.996zM831.948003 735.986001h63.996v127.992h-63.996zM831.948003 575.996h63.996v127.992001h-63.996zM831.948003 416.006h63.996v127.992h-63.996zM831.948003 256.015999h63.996v127.992001h-63.996zM703.956003 96.025998h63.996v127.992001h-63.996zM575.964002 96.025998h63.996v127.992001h-63.996zM831.948003 96.025998h63.996v127.992001h-63.996zM991.938004 896.008h-31.998v127.960002h32.15799a31.934004 31.934004 0 0 0 31.83801-31.966002v-63.996a31.998 31.998 0 0 0-31.998-31.998zM991.938004 735.986001h-31.998V863.946003h32.15799a31.934004 31.934004 0 0 0 31.83801-31.966002v-63.996a31.998 31.998 0 0 0-31.998-31.998zM991.938004 576.027998h-31.998v127.960003h32.15799a31.934004 31.934004 0 0 0 31.83801-31.966002v-63.996001a31.998 31.998 0 0 0-31.998-31.998zM991.938004 416.006h-31.998V543.966002h32.15799a31.934004 31.934004 0 0 0 31.83801-31.966002v-63.996a31.998 31.998 0 0 0-31.998-31.998zM991.938004 256.047997h-31.998v127.960003h32.15799a31.934004 31.934004 0 0 0 31.83801-31.966003v-63.996a31.998 31.998 0 0 0-31.998-31.998zM991.938004 96.025998h-31.998V223.986001h32.15799A31.934004 31.934004 0 0 0 1023.936004 192.019999v-63.996a31.998 31.998 0 0 0-31.998-31.998001zM703.956003 327.883507c17.11893 17.502906 33.27792 35.965752 47.325042 56.124493H767.952003V256.047997h-63.996v71.83551zM703.956003 952.16449v71.803512h63.996v-127.960002h-16.63896c-14.07912 20.15874-30.206112 38.653584-47.35704 56.15649zM447.972002 197.203675c21.854634 3.1998 43.293294 7.551528 63.996 13.791138V96.057996h-63.996v101.145679zM319.980001 197.203675a439.012562 439.012562 0 0 1 63.996-5.151678v-95.994001h-63.996v101.145679zM191.988001 128.055997v63.996c0 16.414974 12.47922 29.374164 28.382226 31.262046A448.611962 448.611962 0 0 1 255.984001 211.122805V96.057996H223.986001a31.998 31.998 0 0 0-31.998 31.998001z" fill="" p-id="5795"></path><path d="M481.153928 626.424848A126.840072 126.840072 0 0 0 511.968002 544.029998a127.67202 127.67202 0 0 0-95.994-123.448284v-68.539717h-31.998001v63.996001h-31.998v-63.996001h-31.998v63.996001H223.986001v31.998c31.998 0 31.998 31.998 31.998 31.998v319.980001s0 31.998-31.998 31.998v31.998h95.994v63.996001h31.998v-63.996001h31.998v63.996001h31.998001v-63.996001a127.992 127.992 0 0 0 127.992-127.992 127.416036 127.416036 0 0 0-62.812074-109.593151zM383.976001 480.033998a63.996 63.996 0 0 1 0 127.992h-63.996v-127.992h63.996z m31.998001 319.980001h-95.994001v-127.992h95.994001a63.996 63.996 0 0 1 0 127.992z" fill="" p-id="5796"></path></svg>